<svg width="18" height="20" viewBox="0 0 18 20" fill="none" xmlns="http://www.w3.org/2000/svg">
<g clip-path="url(#clip0_6343_3469)">
<path d="M1.91316 6.01563L4.86261 8.05263C4.9327 8.09943 5.00988 8.12906 5.08965 8.13977C5.16942 8.15048 5.25017 8.14207 5.32719 8.11502C5.40421 8.08798 5.47595 8.04284 5.53822 7.98225C5.60049 7.92165 5.65204 7.84682 5.68985 7.76213L5.69612 7.74913C5.73752 7.66761 5.76503 7.57709 5.77706 7.4828C5.78909 7.3885 5.7854 7.29229 5.76621 7.19971C5.74701 7.10713 5.71269 7.02001 5.66522 6.94336C5.61775 6.86672 5.55807 6.80206 5.48962 6.75313L2.54017 4.71663C2.39605 4.61717 2.2248 4.59027 2.0641 4.64184C1.9034 4.69342 1.7664 4.81924 1.68326 4.99163C1.60011 5.16402 1.57762 5.36886 1.62073 5.56108C1.66385 5.75331 1.76904 5.91717 1.91316 6.01663V6.01563Z" fill="#C8CDE2"/>
<path d="M12.2062 7.75008C12.2441 7.83435 12.2957 7.90875 12.358 7.96894C12.4202 8.02913 12.4918 8.07391 12.5686 8.10067C12.6455 8.12743 12.726 8.13563 12.8055 8.1248C12.885 8.11397 12.9619 8.08432 13.0318 8.03758L15.9578 6.01608C16.1019 5.91662 16.2071 5.75276 16.2502 5.56053C16.2933 5.36831 16.2708 5.16347 16.1877 4.99108C16.1046 4.81869 15.9676 4.69287 15.8069 4.6413C15.6462 4.58972 15.4749 4.61662 15.3308 4.71608L12.4047 6.73758C12.3359 6.78659 12.2759 6.85149 12.2282 6.92851C12.1806 7.00552 12.1462 7.09311 12.1271 7.18617C12.108 7.27924 12.1045 7.37592 12.117 7.47058C12.1294 7.56525 12.1575 7.65601 12.1995 7.73758L12.2062 7.75008Z" fill="#919BC6"/>
<path d="M7.05464 6.11597L7.06551 6.10847C7.1358 6.06294 7.19782 6.00116 7.24799 5.92672C7.29816 5.85229 7.33547 5.76668 7.35775 5.67485C7.38003 5.58303 7.38684 5.48683 7.37779 5.39183C7.36874 5.29684 7.34401 5.20494 7.30503 5.12147L5.60458 1.59997C5.56341 1.51461 5.50858 1.43978 5.44324 1.37977C5.37789 1.31975 5.3033 1.27572 5.22373 1.25018C5.06303 1.19861 4.89178 1.22551 4.74766 1.32497C4.60354 1.42442 4.49835 1.58829 4.45524 1.78051C4.41212 1.97274 4.43461 2.17758 4.51776 2.34997L6.21863 5.87097C6.25968 5.95322 6.31398 6.0249 6.37838 6.08183C6.44279 6.13876 6.51601 6.17982 6.59379 6.20262C6.67158 6.22541 6.75237 6.22949 6.83149 6.21462C6.9106 6.19974 6.98645 6.16621 7.05464 6.11597Z" fill="#C8CDE2"/>
<path d="M8.95033 5.50007H8.95659C9.03452 5.50341 9.11222 5.48808 9.18513 5.455C9.25804 5.42191 9.32468 5.37173 9.38114 5.3074C9.43761 5.24308 9.48276 5.1659 9.51394 5.08041C9.54512 4.99492 9.5617 4.90283 9.5627 4.80957V0.731567C9.5627 0.532655 9.49664 0.34189 9.37906 0.201237C9.26147 0.060585 9.10199 -0.0184326 8.93569 -0.0184326C8.7694 -0.0184326 8.60992 0.060585 8.49233 0.201237C8.37475 0.34189 8.30869 0.532655 8.30869 0.731567V4.81007C8.30921 4.90258 8.32517 4.99403 8.35563 5.07907C8.3861 5.16411 8.43044 5.24101 8.48608 5.30528C8.54171 5.36954 8.60752 5.41988 8.67963 5.45332C8.75174 5.48677 8.8287 5.50267 8.90602 5.50007H8.95033Z" fill="#C8CDE2"/>
<path d="M5.18826 10V9.9645C5.19026 9.87208 5.17685 9.7801 5.14883 9.69394C5.1208 9.60777 5.07872 9.52914 5.02502 9.46264C4.97133 9.39613 4.9071 9.34308 4.83609 9.30657C4.76508 9.27006 4.6887 9.25083 4.61141 9.25H1.1871C1.02081 9.25 0.861323 9.32902 0.743736 9.46967C0.626149 9.61032 0.560089 9.80109 0.560089 10C0.560089 10.1989 0.626149 10.3897 0.743736 10.5303C0.861323 10.671 1.02081 10.75 1.1871 10.75H4.61141C4.68873 10.7492 4.76516 10.7301 4.83622 10.6936C4.90728 10.6571 4.97156 10.6041 5.02529 10.5375C5.07903 10.471 5.12116 10.3924 5.14921 10.3062C5.17726 10.22 5.19068 10.128 5.18867 10.0355L5.18826 10Z" fill="#C8CDE2"/>
<path d="M10.8284 6.10297C10.8966 6.15238 10.9722 6.18518 11.051 6.19949C11.1297 6.21379 11.2101 6.20931 11.2874 6.1863C11.3647 6.1633 11.4375 6.12222 11.5015 6.06544C11.5655 6.00866 11.6194 5.9373 11.6603 5.85547L13.3528 2.34997C13.394 2.26461 13.4207 2.17038 13.4314 2.07268C13.4421 1.97497 13.4367 1.87569 13.4153 1.78051C13.394 1.68533 13.3571 1.59611 13.307 1.51795C13.2568 1.43979 13.1942 1.37421 13.1229 1.32497C12.9788 1.22551 12.8075 1.19861 12.6468 1.25018C12.4861 1.30175 12.3491 1.42758 12.266 1.59997L10.573 5.10747C10.5339 5.19135 10.5091 5.28373 10.5002 5.3792C10.4913 5.47467 10.4984 5.57132 10.5211 5.66347C10.5438 5.75562 10.5816 5.84143 10.6324 5.91587C10.6831 5.99031 10.7458 6.05187 10.8167 6.09697L10.8284 6.10297Z" fill="#919BC6"/>
<path d="M10.8284 13.8971L10.8175 13.9046C10.7466 13.9497 10.6839 14.0112 10.6332 14.0857C10.5824 14.1601 10.5446 14.2459 10.5219 14.3381C10.4992 14.4302 10.4921 14.5269 10.501 14.6223C10.5099 14.7178 10.5347 14.8102 10.5738 14.8941L12.2668 18.4016C12.3499 18.574 12.4869 18.6998 12.6476 18.7514C12.8083 18.8029 12.9796 18.776 13.1237 18.6766C13.2678 18.5771 13.373 18.4133 13.4161 18.221C13.4592 18.0288 13.4367 17.824 13.3536 17.6516L11.6611 14.1446C11.6202 14.0626 11.5662 13.9911 11.5022 13.9343C11.4381 13.8774 11.3653 13.8363 11.2879 13.8133C11.2104 13.7902 11.13 13.7858 11.0511 13.8002C10.9723 13.8146 10.8966 13.8475 10.8284 13.8971V13.8971Z" fill="#24388D"/>
<path d="M5.67982 12.219C5.64326 12.1367 5.59333 12.0639 5.53295 12.005C5.47257 11.946 5.40296 11.9021 5.3282 11.8758C5.25344 11.8495 5.17505 11.8413 5.09761 11.8517C5.02017 11.8621 4.94525 11.891 4.87724 11.9365L1.91316 13.9845C1.76904 14.0839 1.66385 14.2478 1.62073 14.44C1.57762 14.6322 1.60011 14.8371 1.68326 15.0095C1.7664 15.1819 1.9034 15.3077 2.0641 15.3593C2.2248 15.4108 2.39605 15.3839 2.54017 15.2845L5.50509 13.237C5.57158 13.1896 5.62955 13.127 5.67567 13.0526C5.72178 12.9783 5.75511 12.8938 5.77373 12.804C5.79235 12.7141 5.79589 12.6208 5.78415 12.5293C5.7724 12.4378 5.74561 12.35 5.70531 12.271C5.6957 12.253 5.68776 12.236 5.67982 12.219Z" fill="#C8CDE2"/>
<path d="M16.6843 9.25H13.313C13.2327 9.25103 13.1533 9.27112 13.0795 9.3091C13.0057 9.34708 12.939 9.40219 12.8831 9.47125C12.8272 9.54031 12.7834 9.62194 12.7541 9.71141C12.7248 9.80089 12.7106 9.89643 12.7124 9.9925V10.0075C12.7106 10.1036 12.7248 10.1991 12.7541 10.2886C12.7834 10.3781 12.8272 10.4597 12.8831 10.5287C12.939 10.5978 13.0057 10.6529 13.0795 10.6909C13.1533 10.7289 13.2327 10.749 13.313 10.75H16.6843C16.8506 10.75 17.01 10.671 17.1276 10.5303C17.2452 10.3897 17.3113 10.1989 17.3113 10C17.3113 9.80109 17.2452 9.61032 17.1276 9.46967C17.01 9.32902 16.8506 9.25 16.6843 9.25Z" fill="#5B6AA9"/>
<path d="M15.9582 13.9846L13.0321 11.9626C12.9623 11.9159 12.8853 11.8864 12.8058 11.8756C12.7263 11.8648 12.6458 11.8731 12.569 11.8999C12.4921 11.9267 12.4205 11.9715 12.3583 12.0317C12.2961 12.0919 12.2445 12.1663 12.2066 12.2506L12.2003 12.2636C12.1583 12.3452 12.1302 12.4359 12.1178 12.5306C12.1053 12.6252 12.1088 12.7219 12.1279 12.815C12.147 12.9081 12.1813 12.9956 12.229 13.0727C12.2767 13.1497 12.3367 13.2146 12.4055 13.2636L15.3316 15.2851C15.4757 15.3845 15.6469 15.4114 15.8077 15.3599C15.8872 15.3343 15.9618 15.2903 16.0272 15.2303C16.0925 15.1703 16.1473 15.0954 16.1885 15.0101C16.2297 14.9247 16.2564 14.8305 16.2671 14.7328C16.2778 14.6351 16.2724 14.5358 16.251 14.4406C16.2297 14.3455 16.1929 14.2562 16.1427 14.1781C16.0925 14.0999 16.03 14.0343 15.9586 13.9851L15.9582 13.9846Z" fill="#5B6AA9"/>
<path d="M8.95033 14.5H8.90602C8.8287 14.4974 8.75174 14.5133 8.67963 14.5468C8.60752 14.5802 8.54171 14.6305 8.48608 14.6948C8.43044 14.7591 8.3861 14.836 8.35563 14.921C8.32517 15.0061 8.30921 15.0975 8.30869 15.19V19.2685C8.30869 19.4674 8.37475 19.6582 8.49233 19.7989C8.60992 19.9395 8.7694 20.0185 8.93569 20.0185C9.10199 20.0185 9.26147 19.9395 9.37906 19.7989C9.49664 19.6582 9.5627 19.4674 9.5627 19.2685V15.1905C9.5617 15.0973 9.54512 15.0052 9.51394 14.9197C9.48276 14.8342 9.43761 14.757 9.38114 14.6927C9.32468 14.6284 9.25804 14.5782 9.18513 14.5451C9.11222 14.512 9.03452 14.4967 8.95659 14.5H8.95033Z" fill="#24388D"/>
<path d="M7.03877 13.8731C6.97271 13.8241 6.89916 13.7914 6.82241 13.7768C6.74566 13.7623 6.66726 13.7661 6.59177 13.7882C6.51628 13.8103 6.44522 13.8501 6.38274 13.9053C6.32025 13.9606 6.2676 14.0302 6.22784 14.1101L4.51861 17.6501C4.43547 17.8225 4.41298 18.0273 4.45609 18.2195C4.49921 18.4117 4.6044 18.5756 4.74852 18.6751C4.89264 18.7745 5.06389 18.8014 5.22459 18.7498C5.38529 18.6983 5.52228 18.5725 5.60543 18.4001L7.31382 14.8601C7.35174 14.779 7.3758 14.6898 7.3846 14.5976C7.39341 14.5053 7.38679 14.4119 7.36512 14.3227C7.34345 14.2336 7.30717 14.1505 7.25839 14.0783C7.20961 14.006 7.14931 13.9461 7.08099 13.9021L7.03877 13.8731Z" fill="#C8CDE2"/>
</g>
<defs>
<clipPath id="clip0_6343_3469">
<rect width="16.7203" height="20" fill="white" transform="translate(0.575562)"/>
</clipPath>
</defs>
</svg>
